<svg version="1.2" xmlns="http://www.w3.org/2000/svg" viewBox="0 0 234 230" width="234" height="230">
	<title>1318-ai</title>
	<style>
		.s0 { fill: #ff4800 } 
		.s1 { fill: #5ecce5 } 
		.s2 { fill: #113240 } 
		.s3 { fill: #f9c172 } 
		.s4 { fill: #ace2ec } 
		.s5 { fill: #204451 } 
		.s6 { fill: #defdff } 
		.s7 { fill: #28a5b2 } 
		.s8 { fill: #82d3e2 } 
		.s9 { fill: #ffb45a } 
		.s10 { fill: #bde2e5 } 
		.s11 { fill: #1e7c85 } 
		.s12 { fill: #3db5c9 } 
		.s13 { fill: #facb88 } 
		.s14 { fill: #15baac } 
		.s15 { fill: #0baf9b } 
		.s16 { fill: #0a9b86 } 
		.s17 { fill: #4be0ca } 
	</style>
	<g id="Layer 1">
		<g id="&lt;Group&gt;">
			<g id="&lt;Group&gt;">
				<g id="&lt;Group&gt;">
					<g id="&lt;Group&gt;">
						<g id="&lt;Group&gt;">
							<path id="&lt;Compound Path&gt;" fill-rule="evenodd" class="s0" d="m94.3 512c-2.7-0.9-5.3-2.3-7.6-4q1.2-1.6 2.4-3.1c1.3-1.7 0.1-1.5-1.4-3.1-1.5-1.6-1.4-3.5-3.5-2.2q-1.6 1-3.3 2.1c-1.5-2.5-2.6-5.1-3.2-8q2.1-0.4 4.3-0.9c1.5-0.3 0.4-2.3 0.4-3.6-0.1-1.9 0.9-3.2-1.2-3.5-0.9-0.1-2.3-0.3-3.9-0.5 0.4-2.9 1.3-5.6 2.6-8.2q2 1.1 4 2.1c1.2 0.6 1.8-1.5 2.6-2.5 1.1-1.5 2.7-1.9 1.3-3.5q-1.3-1.4-2.7-2.9c2.2-1.9 4.6-3.5 7.3-4.5q0.7 1.8 1.5 3.6c0.8 2 2 0.6 4 0.2 2.6-0.6 3.1 0.3 3-2.4q-0.1-1.6-0.2-3.3c2.9-0.1 5.8 0.3 8.5 1.2q-0.6 1.8-1.2 3.7c-0.6 2 0.6 1.5 2.4 2.4 0.3 0.2 3.2 2 3.3 1.9q0.5-0.7 1.1-1.5 1-1.3 2-2.6c2.3 1.8 4.3 3.9 5.8 6.4q-1.9 1.1-3.8 2.3c-1.2 0.8 0.4 2.4 0.9 3.6 0.7 1.7 0.3 3.3 2.3 2.8q1.9-0.4 3.9-0.8c0.6 2.8 0.7 5.7 0.3 8.5q-2.6-0.3-5.2-0.7c-0.3 1.7-0.7 5.2-2.1 6.4 0.2 0.8 3.9 2.1 4.7 2.5-1.3 2.5-3.1 4.8-5.2 6.8q-1.3-1.5-2.7-2.9c-0.1-0.2-0.7-1-0.9-1q-1.9 1.7-4.1 2.9c-1.6 0.8-1.7 0.4-1 1.9q0.7 1.9 1.5 3.7c-2.7 1.1-5.5 1.7-8.4 1.8q-0.1-2.6-0.2-5.3c-2.3 0.1-4.6-0.2-6.7-0.9q-0.8 2.5-1.6 5.1zm-5-15.7q0 0 0 0 0 0.1 0 0.1c4.6 7.1 14.6 8.9 21.4 3.8 6-4.6 7.6-13.3 3.5-19.6-4.6-7.2-14.6-9-21.4-3.8-6 4.5-7.5 13.2-3.5 19.5zm0 0q0 0 0 0c-0.9-1.4 0.9 1.5 0 0.1q0 0 0-0.1z"/>
						</g>
					</g>
					<g id="&lt;Group&gt;">
						<g id="&lt;Group&gt;">
							<path id="&lt;Compound Path&gt;" fill-rule="evenodd" class="s1" d="m122.1 542.5c-2 0.2-4 0.1-6-0.4q0.3-1.3 0.6-2.5c0.5-1.7-0.3-1.2-1.9-1.9-1.6-0.7-1.8-1.6-2.8-0.2q-0.7 1.1-1.4 2.2c-1.6-1.2-3.1-2.6-4.3-4.2q1.2-0.9 2.5-1.9c0.8-0.6-0.4-1.6-0.8-2.4-0.6-1.4-0.3-2.3-1.9-1.8q-1.3 0.3-2.5 0.7c-0.5-1.9-0.8-4-0.6-6q1.5 0.1 3.1 0.2c1 0.1 0.7-1.5 1-2.4 0.3-1.4 1.2-1.9-0.4-2.6q-1.1-0.5-2.3-1c0.8-1.9 1.9-3.6 3.3-5q1 0.8 1.9 1.7c1.3 1.2 1.2 0.3 2.6-0.7 1.4-1 2.3-0.7 1.5-2.3q-0.6-1.2-1.1-2.3c1.8-0.9 3.8-1.5 5.8-1.7q0.1 1.3 0.2 2.5c0.2 1.8 0.8 1 2.6 1.2 1.7 0.1 2.1 0.9 2.6-0.8q0.3-1.3 0.6-2.5c1.9 0.5 3.8 1.3 5.5 2.4q-0.9 1.3-1.8 2.6c-0.6 1 0.8 1.3 1.5 2 0.7 0.6 1.3 2.1 2.1 1.4q1.3-0.9 2.5-1.8c1.2 1.6 2.1 3.4 2.7 5.4q-1.8 0.5-3.6 1c0.5 1.5 0.6 3.1 0.5 4.7q1.9 0.1 3.8 0.3c-0.2 2-0.7 4-1.5 5.8q-1.7-0.7-3.4-1.5c-0.1 0.4-2.5 4.1-2.5 4.1q1.3 1.2 2.6 2.4c-1.4 1.5-3.1 2.7-4.9 3.6q-0.8-1.7-1.6-3.4-2.2 1.1-4.6 1.4 0.2 1.8 0.4 3.7zm-7.8-8.8c-0.1-0.1-0.2-0.1 0.2 0.1q0 0 0 0 0 0.1 0.1 0.1c0.3 0.2 0.2 0.2 0.1 0.1 11 7 22.4-10 11.3-17.4-11-7.3-22.5 9.6-11.7 17.1zm0.2 0.1q-0.1 0-0.2-0.1c0.1 0.1 0.3 0.2 0.4 0.3q-0.1-0.1-0.1-0.1-0.1 0-0.1-0.1 0 0 0 0z"/>
						</g>
					</g>
					<g id="&lt;Group&gt;">
						<g id="&lt;Group&gt;">
							<path id="&lt;Compound Path&gt;" fill-rule="evenodd" class="s2" d="m140 489.9c-1.4 0.4-2.9 0.5-4.3 0.4q0.1-1 0.2-1.9c0.1-1.3-0.4-0.8-1.7-1.2-1.2-0.3-1.4-1-1.9 0.2q-0.4 0.8-0.8 1.7c-1.4-0.7-2.6-1.5-3.6-2.6q0.8-0.8 1.7-1.6c0.5-0.5-0.5-1.1-0.8-1.6-0.7-1-0.5-1.7-1.6-1.2q-0.9 0.4-1.7 0.8c-0.6-1.3-1-2.8-1.1-4.2q1.1-0.1 2.3-0.2c0.7-0.1 0.4-1.2 0.4-1.8 0.2-1.1 0.7-1.5-0.5-1.9q-0.9-0.2-1.7-0.5c0.4-1.4 1-2.7 1.9-3.9q0.7 0.5 1.5 1.1c1 0.7 0.9 0 1.8-0.8 0.9-0.9 1.6-0.8 0.8-1.8q-0.5-0.8-1-1.6c1.2-0.8 2.6-1.4 4-1.7q0.2 0.8 0.4 1.7c0.4 1.3 0.7 0.7 2 0.6 1.2-0.1 1.6 0.5 1.8-0.8q0-0.9 0.1-1.9c1.5 0.2 2.9 0.6 4.2 1.2q-0.5 1.1-1 2.1c-0.3 0.7 0.8 0.8 1.3 1.2 0.5 0.4 1.1 1.4 1.6 0.9q0.9-0.8 1.7-1.6c1 1 1.8 2.3 2.4 3.6q-1.2 0.6-2.4 1.1c0.4 1.1 0.7 2.2 0.8 3.3q1.4-0.1 2.7-0.2c0.1 1.5 0 3-0.4 4.4q-1.3-0.4-2.6-0.8c-0.1 0.3-1.4 3.2-1.4 3.2q1 0.8 2 1.5c-0.8 1.2-1.9 2.2-3.1 3.1q-0.7-1.2-1.5-2.3-1.4 1-3.1 1.4 0.3 1.3 0.6 2.6zm-6.4-5.4c-0.2-0.1-0.2-0.1 0.1 0q0 0 0 0 0 0 0.1 0.1-0.1-0.1-0.2-0.1 0 0 0.1 0 0 0 0 0c0.3 0.2 0.2 0.1 0.1 0.1 8.6 4 15.1-9.4 6.4-13.6-8.6-4.2-15.2 9.2-6.6 13.5z"/>
						</g>
					</g>
				</g>
			</g>
			<g id="&lt;Group&gt;">
				<g id="&lt;Group&gt;">
					<g id="&lt;Group&gt;">
						<path id="&lt;Path&gt;" class="s3" d="m106 597.3c0-10-1.4-33.3-1.4-33.3 0.1-4.5-1-9-3.1-13.1l-5.4-10.4c-2.3-4.2-5.5-7.8-9.6-10.4l-13.8-8.9c0 0-3.9 2.1-0.9 7 3 4.9 7.3 8.7 7.3 8.7l2.7 7.8c1 2.8-0.5 5.8-3.3 6.6-1.6 0.6-13.9-2.1-15.3-3.2l-4.7-9.5-2.1-15.7c0 0 9.7-11.6 4.3-17.9-0.8-1-2.6-1.8-2.6-1.8l-9.8 16.2-0.8 18.1c-0.2 3.7 0.8 7.4 2.8 10.5 0 0 3.8 11.2 10.5 16.1l24.4 14.6-3.3 18.6z"/>
					</g>
				</g>
			</g>
			<g id="&lt;Group&gt;">
				<g id="&lt;Group&gt;">
					<g id="&lt;Group&gt;">
						<path id="&lt;Path&gt;" class="s3" d="m126 597.3c0-10 1.4-33.3 1.4-33.3-0.1-4.5 1-9 3.1-13.1l5.4-10.4c2.2-4.2 5.5-7.8 9.5-10.4l13.9-8.9c0 0 3.9 2.1 0.9 7-3 4.9-7.3 8.7-7.3 8.7l-2.8 7.8c-0.9 2.8 0.6 5.8 3.3 6.6 1.7 0.6 14-2.1 15.4-3.2l4.6-9.5 2.2-15.7c0 0-9.7-11.6-4.3-17.9 0.8-1 2.6-1.8 2.6-1.8l9.8 16.2 0.8 18.1c0.2 3.7-0.8 7.4-2.8 10.5 0 0-3.8 11.2-10.5 16.1l-24.4 14.6 3.3 18.6z"/>
					</g>
				</g>
			</g>
		</g>
		<g id="&lt;Group&gt;">
			<g id="&lt;Group&gt;">
				<g id="&lt;Group&gt;">
					<g id="&lt;Group&gt;">
						<path id="&lt;Path&gt;" class="s4" d="m116 182.5h-22.1v-45.7h22.1z"/>
					</g>
					<g id="&lt;Group&gt;">
						<path id="&lt;Path&gt;" class="s3" d="m116 147.6l-15.4-5.6v-30.9h15.4v29.9z"/>
					</g>
					<g id="&lt;Group&gt;">
						<path id="&lt;Path&gt;" class="s5" d="m113.9 157.9l-7.4 15.3 6 9.3h3.5v-41.5l-7.7 11.5z"/>
					</g>
					<g id="&lt;Group&gt;">
						<path id="&lt;Path&gt;" class="s6" d="m97.6 132.5l18.4 8.5-7.7 13.8-14.4-18z"/>
					</g>
					<g id="&lt;Group&gt;">
						<path id="&lt;Path&gt;" class="s7" d="m57.4 182.5h58.6l-26.9-38.1h-5.5c-26.2 0-26.2 38.1-26.2 38.1z"/>
					</g>
					<g id="&lt;Group&gt;">
						<path id="&lt;Path&gt;" class="s1" d="m83.3 143.7l10.6-6.9 22.1 45.7-24.8-20.3 5.3-7.4-9.8 1.2z"/>
					</g>
				</g>
				<g id="&lt;Group&gt;">
					<g id="&lt;Group&gt;">
						<path id="&lt;Path&gt;" class="s8" d="m116 182.5h22v-45.7h-22z"/>
					</g>
					<g id="&lt;Group&gt;">
						<path id="&lt;Path&gt;" class="s9" d="m116 147.6l15.3-5.6v-30.9h-15.3v29.9z"/>
					</g>
					<g id="&lt;Group&gt;">
						<path id="&lt;Path&gt;" class="s2" d="m118.1 157.9l7.4 15.3-6 9.3h-3.5v-41.5l7.7 11.5z"/>
					</g>
					<g id="&lt;Group&gt;">
						<path id="&lt;Path&gt;" class="s10" d="m134.3 132.5l-18.3 8.5 7.7 13.8 14.3-18z"/>
					</g>
					<g id="&lt;Group&gt;">
						<path id="&lt;Path&gt;" class="s11" d="m174.6 182.5h-58.6l26.8-38.1h5.5c24.2 0 26.3 38.1 26.3 38.1z"/>
					</g>
					<g id="&lt;Group&gt;">
						<path id="&lt;Path&gt;" class="s12" d="m148.7 143.7l-10.7-6.9-22 45.7 24.8-20.3-5.4-7.4 9.9 1.2z"/>
					</g>
				</g>
				<g id="&lt;Group&gt;">
					<path id="&lt;Path&gt;" class="s13" d="m93.3 89.3l-0.6-0.2c-3-1.3-3.8-1.5-3.5 5.4 0 0-0.1 12.2 4.5 12.8 0.4 2 1 3.9 1.9 5.4 4.5 8.2 12.3 17.6 20.4 17.6v-23-18-18c-25-3.1-20.3 7.7-22.7 18z"/>
				</g>
				<g id="&lt;Group&gt;">
					<path id="&lt;Path&gt;" class="s3" d="m138.7 89.3l0.5-0.2c3.1-1.3 3.8-1.5 3.6 5.4 0 0 0 12.2-4.5 12.8-0.5 2-1 3.9-1.9 5.4-4.5 8.2-12.4 17.6-20.4 17.6v-23-18-18c25-3.1 20.3 7.7 22.7 18z"/>
				</g>
				<g id="&lt;Group&gt;">
					<path id="&lt;Path&gt;" class="s2" d="m111 58.8c-2.7 0-5.4 0.4-7.9 1.4-17 6.5-10.3 29.5-9.8 35.6 0.1 1.6 0.9-9.5 2.2-15.5 0.8-3.7 5.8-4.5 9-2.4 4.7 3.2 11.5 2.4 11.5 2.4v-21.5z"/>
				</g>
				<g id="&lt;Group&gt;">
					<path id="&lt;Path&gt;" class="s2" d="m121 58.8c2.7 0 5.4 0.4 7.9 1.4 16.9 6.5 10.3 29.5 9.8 35.6-0.1 1.6-0.9-9.5-2.2-15.5-0.9-3.7-5.8-4.5-9-2.4-4.8 3.2-11.5 2.4-11.5 2.4v-21.5z"/>
				</g>
			</g>
			<g id="&lt;Group&gt;">
				<g id="&lt;Group&gt;">
					<path id="&lt;Path&gt;" class="s14" d="m132.2 120.2q0 0 0 0h-13.8v-2h13.8q0 0 0 0c3.1 0 5.8-2 6.8-4.9l2.5-6.9 1.9 0.7-2.5 6.9c-1.3 3.7-4.8 6.2-8.7 6.2z"/>
				</g>
				<g id="&lt;Group&gt;">
					<g id="&lt;Group&gt;">
						<path id="&lt;Path&gt;" class="s15" d="m120.5 122.5h1.6 1.6c1.8 0 3.3-1.5 3.3-3.3h-9.9c0 1.8 1.5 3.3 3.4 3.3z"/>
					</g>
					<g id="&lt;Group&gt;">
						<path id="&lt;Path&gt;" class="s14" d="m123.7 115.8h-1.6-1.6c-1.9 0-3.4 1.5-3.4 3.4h9.9c0-1.9-1.5-3.4-3.3-3.4z"/>
					</g>
				</g>
				<g id="&lt;Group&gt;">
					<g id="&lt;Group&gt;">
						<g id="&lt;Group&gt;">
							<g id="&lt;Group&gt;">
								<path id="&lt;Path&gt;" class="s14" d="m113.7 50.8c-14.6 0-26.4 11.9-26.4 26.6v4.4h3.8v-4.4c0-12.5 10.2-22.7 22.6-22.7h2.3v-3.9z"/>
							</g>
							<g id="&lt;Group&gt;">
								<path id="&lt;Path&gt;" class="s16" d="m118.3 50.8h-2.3v3.9h2.3c12.4 0 22.5 10.2 22.5 22.7v4.4h3.9v-4.4c0-14.7-11.9-26.6-26.4-26.6z"/>
							</g>
						</g>
						<g id="&lt;Group&gt;">
							<g id="&lt;Group&gt;">
								<path id="&lt;Path&gt;" class="s17" d="m150.9 82.3c-1.9-2.5-5.2-2.7-5.2-2.7-1.2-0.3-2.3-0.3-3.3 0v29c1 0.2 2.1 0.2 3.3 0 0 0 3.3-0.3 5.2-2.7 2-2.5 2-21.1 0-23.6z"/>
							</g>
							<g id="&lt;Group&gt;">
								<path id="&lt;Path&gt;" class="s14" d="m138.5 85.3v17.6c0 2.9 1.6 5 3.9 5.7v-29c-2.3 0.7-3.9 2.8-3.9 5.7z"/>
							</g>
							<g id="&lt;Group&gt;">
								<path id="&lt;Path&gt;" class="s17" d="m86.3 79.6c0 0-3.3 0.2-5.3 2.7-1.9 2.5-1.9 21.1 0 23.6 2 2.4 5.3 2.7 5.3 2.7 1.2 0.2 2.3 0.2 3.3 0v-29c-1-0.3-2.1-0.3-3.3 0z"/>
							</g>
							<g id="&lt;Group&gt;">
								<path id="&lt;Path&gt;" class="s16" d="m89.6 79.6v29c2.3-0.7 3.9-2.8 3.9-5.7v-17.6c0-2.9-1.6-5-3.9-5.7z"/>
							</g>
						</g>
					</g>
				</g>
			</g>
		</g>
	</g>
</svg>